<svg width="26" height="24" viewBox="0 0 26 24" fill="none" xmlns="http://www.w3.org/2000/svg">
<path d="M10.8708 21.628V14.308H3.06702C2.27421 14.355 1.51916 13.9852 1.10754 13.3483C0.695924 12.7113 0.695924 11.9126 1.10754 11.2757C1.51916 10.6387 2.27421 10.2689 3.06702 10.316H10.875V2.99996C10.8248 2.2567 11.2193 1.54884 11.8987 1.16295C12.5781 0.777062 13.43 0.777062 14.1095 1.16295C14.7889 1.54884 15.1834 2.2567 15.1332 2.99996V10.32H22.9412C23.734 10.2729 24.489 10.6427 24.9006 11.2797C25.3122 11.9166 25.3122 12.7153 24.9006 13.3523C24.489 13.9892 23.734 14.359 22.9412 14.312H15.1332V21.632C15.1834 22.3752 14.7889 23.0831 14.1095 23.469C13.43 23.8549 12.5781 23.8549 11.8987 23.469C11.2193 23.0831 10.8248 22.3752 10.875 21.632L10.8708 21.628Z" fill="url(#paint0_linear_1_1028)"/>
<defs>
<linearGradient id="paint0_linear_1_1028" x1="0.798828" y1="0.873535" x2="0.798828" y2="23.7584" gradientUnits="userSpaceOnUse">
<stop stop-color="#293170"/>
<stop offset="1" stop-color="#01BCAD"/>
</linearGradient>
</defs>
</svg>
