<svg width="160" height="161" viewBox="0 0 160 161" fill="none" xmlns="http://www.w3.org/2000/svg">
<mask id="mask0_1_1388" style="mask-type:alpha" maskUnits="userSpaceOnUse" x="0" y="0" width="160" height="161">
<path d="M80 160.5C124.183 160.5 160 124.683 160 80.5C160 36.3172 124.183 0.5 80 0.5C35.8172 0.5 0 36.3172 0 80.5C0 124.683 35.8172 160.5 80 160.5Z" fill="#D9E8FF"/>
</mask>
<g mask="url(#mask0_1_1388)">
<path d="M80 160.5C124.183 160.5 160 124.683 160 80.5C160 36.3172 124.183 0.5 80 0.5C35.8172 0.5 0 36.3172 0 80.5C0 124.683 35.8172 160.5 80 160.5Z" fill="#218687" fill-opacity="0.2"/>
<path d="M154.872 96.228C128.955 97.4185 109.518 111.607 103.039 118.553C93.9685 118.553 72.458 117.213 58.9815 111.855C42.1358 105.158 11.684 101.437 1.9653 87.2986C-5.80963 75.9877 -22.4393 74.6482 -29.7823 75.3923V118.553L95.9124 131.947L213.832 118.553V59.7652C191.155 61.2535 187.268 94.7399 154.872 96.228Z" fill="#218687" fill-opacity="0.3"/>
<rect x="0.480469" y="118.968" width="213.126" height="77.1406" fill="#7966FE"/>
<path d="M38 44.5C38 38.9772 42.4772 34.5 48 34.5H111.084C116.606 34.5 121.084 38.9772 121.084 44.5V164.973C121.084 169.391 117.502 172.973 113.084 172.973H46C41.5817 172.973 38 169.391 38 164.973V44.5Z" fill="#22325C"/>
<path fill-rule="evenodd" clip-rule="evenodd" d="M43.1934 45.6927C43.1934 42.379 45.8797 39.6927 49.1934 39.6927H109.892C113.205 39.6927 115.891 42.379 115.891 45.6927V166.973C115.891 170.286 113.205 172.973 109.891 172.973H49.1934C45.8796 172.973 43.1934 170.286 43.1934 166.973V45.6927Z" fill="white"/>
<circle cx="79.2327" cy="91.7329" r="24.2327" fill="#BD9956"/>
<path d="M69 91.7577L76.0749 98.832L89.4067 85.5002" stroke="white" stroke-width="4" stroke-linecap="round" stroke-linejoin="round"/>
<path d="M63.9648 132.285H95.1212" stroke="#A5B4CB" stroke-width="3.5" stroke-linecap="round" stroke-linejoin="round"/>
<path opacity="0.5" d="M67.4258 142.67H91.6585" stroke="#A5B4CB" stroke-width="3.5" stroke-linecap="round" stroke-linejoin="round"/>
<path d="M60.502 39.1034H98.5819L95.3868 46.0166C94.8961 47.0782 93.8331 47.7579 92.6636 47.7579H66.4203C65.2508 47.7579 64.1878 47.0782 63.6971 46.0166L60.502 39.1034Z" fill="#22325C"/>
</g>
</svg>
