<svg width="100" height="100" viewBox="0 0 100 100" fill="none" xmlns="http://www.w3.org/2000/svg">
<g clip-path="url(#clip0_1_1917)">
<path d="M24.1041 14.225C25.8981 13.1735 27.7622 12.2463 29.6833 11.45C33.7122 9.74704 37.9784 8.67204 42.3333 8.2625L47.0291 13.5708L44.8416 19.0667C40.6008 19.8865 36.5393 21.4525 32.8458 23.6917L32.0333 24.1917L31.2916 16.9542L24.1041 14.2042V14.225ZM22.0624 15.5167L29.5166 18.3917L30.2999 25.5167C26.269 28.4761 23.0292 32.3828 20.8666 36.8917C20.6575 37.3007 20.4643 37.7177 20.2874 38.1417L15.0374 31.7708L6.47909 33.5792C8.60048 28.9967 11.5099 24.8222 15.0749 21.2458C17.2208 19.0708 19.5333 17.1667 22.0208 15.5125L22.0624 15.5167ZM71.1541 65.7333C71.9666 64.3833 72.6291 63.0167 73.1541 61.6083L81.2291 71.4L94.7916 68.4792C94.008 70.6293 93.0866 72.7267 92.0333 74.7583C89.2781 80.0835 85.5336 84.8349 80.9999 88.7583C76.4234 92.7363 71.074 95.7253 65.2874 97.5375C65.1749 97.575 65.0541 97.6042 64.9416 97.6458L54.8958 89.15L57.5166 77.5875L57.7291 77.5C63.4749 75 67.9666 71.1292 71.1624 65.6875V65.7333H71.1541ZM88.1374 20.0208C88.9666 21.1583 89.7374 22.3542 90.4833 23.5792C93.5543 28.735 95.723 34.3771 96.8958 40.2625C98.0249 46.1375 98.2083 52.05 97.3958 57.9792C96.9726 60.8064 96.3261 63.5957 95.4624 66.3208L81.8999 69.2333L73.7749 59.4125C74.7374 55.721 74.823 51.8555 74.0249 48.125C73.165 43.6748 71.0649 39.5582 67.9666 36.25L82.5874 34.5L88.0291 20.0167L88.1374 20.0208ZM5.57492 35.7667L14.3249 33.9167L19.4749 40.2042C17.8458 44.7208 17.4749 49.4125 18.2874 54.2875C18.4749 55.6792 18.7833 57.0208 19.1624 58.325L9.91242 56.2208L3.28742 64.0583C2.49022 60.5676 2.0946 56.9972 2.10825 53.4167C2.12075 47.3708 3.23325 41.5417 5.47075 35.9208L5.53742 35.7583L5.57492 35.7667ZM19.9166 60.4917C21.2664 64.0406 23.2563 67.3115 25.7874 70.1417C27.7249 72.3875 29.9124 74.2042 32.2999 75.6375L23.1333 80.8917L23.6333 92.825C20.5998 90.9346 17.8023 88.6897 15.2999 86.1375C11.0908 81.8308 7.777 76.7326 5.54992 71.1375C4.92909 69.575 4.42492 68.0125 3.98742 66.45L10.7999 58.4542L20.0499 60.575L19.9166 60.4917ZM34.2999 76.7292C36.2708 77.7125 38.3791 78.4625 40.6249 78.9792C45.4858 80.1528 50.5774 79.9493 55.3291 78.3917L52.7249 89.8792L62.6708 98.2958C57.6981 99.5964 52.5613 100.159 47.4249 99.9667C39.787 99.7391 32.314 97.6891 25.6291 93.9875L25.1333 81.9792L34.2999 76.7292ZM86.7291 18.1833L81.2583 32.7083L66.1999 34.5208C65.7706 34.136 65.3153 33.781 64.8374 33.4583C60.0031 29.7472 54.2212 27.4728 48.1541 26.8958C46.7124 26.775 45.3416 26.775 44.0291 26.775L49.2791 13.3333L37.9166 0.395837C41.3624 0.0208373 44.7374 -0.037496 48.1624 0.0208373C50.2041 0.0833373 52.2249 0.233337 54.2416 0.491671C57.0749 0.862504 59.8708 1.4875 62.6374 2.24167C68.4916 3.90834 73.8249 6.55 78.6458 10.2833C81.6502 12.5795 84.3646 15.2323 86.7291 18.1833Z" fill="white"/>
</g>
<defs>
<clipPath id="clip0_1_1917">
<rect width="100" height="100" fill="white"/>
</clipPath>
</defs>
</svg>
