<svg width="35" height="35" viewBox="0 0 35 35" fill="none" xmlns="http://www.w3.org/2000/svg">
<path d="M31.8961 1.32068H3.10586C2.11973 1.32068 1.32031 2.1201 1.32031 3.10623V31.8965C1.32031 32.8826 2.11973 33.682 3.10586 33.682H31.8961C32.8822 33.682 33.6816 32.8826 33.6816 31.8965V3.10623C33.6816 2.1201 32.8822 1.32068 31.8961 1.32068Z" fill="#3D5A98"/>
<path d="M23.6473 33.6793V21.1477H27.8527L28.4816 16.2641H23.6473V13.1469C23.6473 11.7332 24.041 10.768 26.0672 10.768H28.6539V6.39297C27.4013 6.26242 26.1426 6.20035 24.8832 6.20703C21.159 6.20703 18.5941 8.47656 18.5941 12.6629V16.2641H14.3887V21.1477H18.5941V33.6793H23.6473Z" fill="white"/>
</svg>
