<svg width="92" height="86" viewBox="0 0 92 86" fill="none" xmlns="http://www.w3.org/2000/svg">
<path d="M76.6667 36.8571H70.5333V43H76.6667C79.1059 43.0024 81.4445 43.974 83.1694 45.7015C84.8942 47.429 85.8642 49.7713 85.8667 52.2143V64.5H92V52.2143C91.9951 48.1428 90.3781 44.2395 87.5036 41.3605C84.6291 38.4816 80.7318 36.862 76.6667 36.8571ZM70.5333 6.14286C72.3529 6.14286 74.1316 6.68327 75.6446 7.69574C77.1575 8.70822 78.3367 10.1473 79.033 11.831C79.7293 13.5147 79.9115 15.3674 79.5566 17.1548C79.2016 18.9422 78.3254 20.584 77.0387 21.8726C75.7521 23.1613 74.1128 24.0388 72.3282 24.3944C70.5435 24.7499 68.6937 24.5674 67.0126 23.87C65.3316 23.1726 63.8947 21.9916 62.8838 20.4763C61.8729 18.961 61.3333 17.1796 61.3333 15.3571C61.3333 12.9134 62.3026 10.5697 64.0279 8.84166C65.7533 7.11365 68.0933 6.14286 70.5333 6.14286ZM70.5333 0C67.5007 0 64.5361 0.90068 62.0146 2.58815C59.493 4.27561 57.5277 6.67407 56.3672 9.48022C55.2066 12.2864 54.903 15.3742 55.4946 18.3532C56.0863 21.3322 57.5466 24.0685 59.691 26.2163C61.8354 28.364 64.5676 29.8266 67.5419 30.4192C70.5163 31.0118 73.5993 30.7076 76.4011 29.5453C79.2029 28.3829 81.5977 26.4146 83.2825 23.8891C84.9674 21.3636 85.8667 18.3945 85.8667 15.3571C85.8667 11.2842 84.2512 7.37803 81.3756 4.498C78.5001 1.61798 74.6 0 70.5333 0ZM67.4667 86H61.3333V79.8571C61.3309 77.4141 60.3608 75.0718 58.636 73.3444C56.9112 71.6169 54.5726 70.6453 52.1333 70.6429H39.8667C37.4274 70.6453 35.0888 71.6169 33.364 73.3444C31.6392 75.0718 30.6691 77.4141 30.6667 79.8571V86H24.5333V79.8571C24.5382 75.7857 26.1552 71.8824 29.0297 69.0034C31.9042 66.1244 35.8015 64.5049 39.8667 64.5H52.1333C56.1985 64.5049 60.0958 66.1244 62.9703 69.0034C65.8448 71.8824 67.4618 75.7857 67.4667 79.8571V86ZM46 33.7857C47.8196 33.7857 49.5983 34.3261 51.1112 35.3386C52.6242 36.3511 53.8034 37.7902 54.4997 39.4738C55.196 41.1575 55.3782 43.0102 55.0232 44.7976C54.6682 46.585 53.792 48.2268 52.5054 49.5155C51.2187 50.8041 49.5795 51.6817 47.7948 52.0372C46.0102 52.3928 44.1604 52.2103 42.4793 51.5129C40.7982 50.8155 39.3614 49.6345 38.3505 48.1192C37.3396 46.6039 36.8 44.8224 36.8 43C36.8 40.5562 37.7693 38.2125 39.4946 36.4845C41.22 34.7565 43.56 33.7857 46 33.7857ZM46 27.6429C42.9674 27.6429 40.0028 28.5435 37.4813 30.231C34.9597 31.9185 32.9944 34.3169 31.8338 37.1231C30.6733 39.9292 30.3696 43.017 30.9613 45.996C31.5529 48.975 33.0133 51.7114 35.1577 53.8591C37.3021 56.0069 40.0342 57.4695 43.0086 58.0621C45.983 58.6546 49.066 58.3505 51.8678 57.1882C54.6696 56.0258 57.0644 54.0574 58.7492 51.532C60.434 49.0065 61.3333 46.0374 61.3333 43C61.3333 38.927 59.7179 35.0209 56.8423 32.1409C53.9667 29.2608 50.0667 27.6429 46 27.6429ZM21.4667 36.8571H15.3333C11.2682 36.862 7.37091 38.4816 4.49641 41.3605C1.6219 44.2395 0.00486943 48.1428 0 52.2143V64.5H6.13333V52.2143C6.13577 49.7713 7.10583 47.429 8.83064 45.7015C10.5554 43.974 12.8941 43.0024 15.3333 43H21.4667V36.8571ZM21.4667 6.14286C23.2863 6.14286 25.065 6.68327 26.5779 7.69574C28.0908 8.70822 29.27 10.1473 29.9664 11.831C30.6627 13.5147 30.8449 15.3674 30.4899 17.1548C30.1349 18.9422 29.2587 20.584 27.972 21.8726C26.6854 23.1613 25.0461 24.0388 23.2615 24.3944C21.4769 24.7499 19.6271 24.5674 17.946 23.87C16.2649 23.1726 14.8281 21.9916 13.8171 20.4763C12.8062 18.961 12.2667 17.1796 12.2667 15.3571C12.2667 12.9134 13.2359 10.5697 14.9613 8.84166C16.6866 7.11365 19.0267 6.14286 21.4667 6.14286ZM21.4667 0C18.434 0 15.4695 0.90068 12.9479 2.58815C10.4264 4.27561 8.46106 6.67407 7.30051 9.48022C6.13997 12.2864 5.83632 15.3742 6.42796 18.3532C7.0196 21.3322 8.47996 24.0685 10.6244 26.2163C12.7688 28.364 15.5009 29.8266 18.4753 30.4192C21.4497 31.0118 24.5327 30.7076 27.3345 29.5453C30.1363 28.3829 32.531 26.4146 34.2159 23.8891C35.9007 21.3636 36.8 18.3945 36.8 15.3571C36.8 11.2842 35.1845 7.37803 32.309 4.498C29.4334 1.61798 25.5333 0 21.4667 0Z" fill="white"/>
</svg>
