<svg width="90" height="192" viewBox="0 0 90 192" fill="none" xmlns="http://www.w3.org/2000/svg">
<path d="M88.4827 124.188C86.2396 113.446 78.7258 105.116 72.2072 96.7074C72.0071 96.4441 71.8017 96.1809 71.6016 95.9123C70.2695 93.3112 68.6688 90.8206 67.1523 88.3458C66.1476 85.9915 65.6231 83.4602 65.6095 80.9005C65.6376 79.8146 65.7967 78.7362 66.0834 77.6885C66.1255 77.5305 66.1729 77.3778 66.2256 77.2251C66.3414 76.8618 66.4731 76.509 66.6205 76.1721C66.6784 76.0509 66.7311 75.9246 66.789 75.8035C66.7917 75.7913 66.7917 75.7787 66.789 75.7666C66.8522 75.656 67.0417 75.3612 67.1154 75.2401L67.2682 75.0189C66.8859 75.2378 66.5322 75.5031 66.215 75.8087C64.7355 76.9987 63.2822 78.2256 61.871 79.4946C60.6881 80.5477 59.5349 81.6534 58.4116 82.8118C55.2897 85.9003 52.4899 89.2982 50.0553 92.9531C46.8516 97.7034 45.5561 103.487 46.4274 109.15C47.1856 114.694 49.6183 119.933 52.746 124.535C54.4151 127 56.4318 129.159 58.3063 131.449C59.6385 133.071 61.1233 134.556 62.5555 136.093L62.287 136.62L62.1185 136.962C61.9448 137.294 61.7657 137.625 61.592 137.957C60.8653 139.3 60.0808 140.59 59.2541 141.906C59.0645 142.196 58.875 142.491 58.6802 142.78L58.4906 143.086C58.4501 143.13 58.4132 143.178 58.38 143.228L57.9588 143.833C56.5318 141.859 54.9943 139.963 53.4726 138.11C49.8815 133.729 46.1009 129.448 43.1154 124.62C39.9982 119.607 37.7393 113.962 37.8025 107.981C37.8379 105.847 38.1874 103.731 38.8398 101.699C39.0083 101.173 39.1979 100.693 39.4138 100.204C39.5138 99.972 39.6191 99.7403 39.7244 99.5139L39.7824 99.3928L39.9456 99.0927C40.0667 98.8715 40.1983 98.6504 40.33 98.4345C40.3879 98.3397 40.4458 98.2449 40.509 98.1502L40.6196 98.0027C41.209 97.3501 41.7377 96.6451 42.1992 95.8965C42.2677 95.7754 42.7573 95.0172 42.1992 95.191C41.5147 95.4068 40.7986 96.2125 40.3142 96.6706C39.3453 97.5762 38.4344 98.5398 37.5603 99.5297C35.3883 101.859 33.6099 104.527 32.2948 107.428C31.4361 109.5 30.9204 111.698 30.7679 113.936C30.5091 118.617 31.4517 123.286 33.5059 127.5C37.7499 136.646 45.3216 143.549 51.0768 151.69L51.6034 152.432L51.8877 152.853C55.1628 157.74 57.5007 163.121 57.4375 169.102C57.2543 173.23 56.2444 177.278 54.4678 181.008C54.2924 178.443 53.7862 175.913 52.9618 173.478C51.9016 170.507 50.3903 167.717 48.4809 165.206C44.2211 159.361 39.4454 153.864 34.8275 148.304C30.2097 142.743 25.6498 137.304 21.3637 131.57C17.394 126.418 14.0367 120.822 11.3593 114.894C7.35228 105.69 6.14649 95.9913 9.06883 86.3186C12.0341 76.7389 16.2063 67.5753 21.4848 59.0487C22.9223 56.6793 24.4493 54.3098 25.9657 51.9456C25.4708 51.1295 24.9442 50.3186 24.3861 49.5024L23.2751 47.9228C22.3659 46.6275 21.4567 45.3199 20.5476 44C19.1838 46.1588 17.799 48.3019 16.4563 50.4765C13.992 54.4836 11.691 58.5959 9.61117 62.8293C3.08724 76.2352 -1.39368 93.3217 0.396585 108.407C1.55499 118.122 6.00432 127.11 11.4541 135.109C14.3764 139.395 17.6305 143.46 20.8951 147.493C24.3598 151.769 27.8982 155.986 31.426 160.225C34.9539 164.464 38.4133 168.555 41.5884 172.946C44.5719 176.954 46.5132 181.64 47.2383 186.584C47.411 187.868 47.492 189.163 47.4805 190.459C47.4805 190.67 47.4805 190.88 47.4805 191.091C47.4805 191.17 47.4542 191.412 47.4489 191.475C47.3594 192.002 47.9754 191.549 48.1492 191.418C50.0395 190.085 51.6507 188.179 53.1198 186.415C57.1426 181.582 60.8811 176.411 62.9189 170.408C64.8724 164.653 65.025 158.466 62.9189 152.737C61.8786 150.062 60.5228 147.52 58.8802 145.166L59.7754 144.07C61.355 142.112 62.8925 140.095 64.3247 138.01C67.9263 142.222 71.2752 147.324 71.2488 153.048C71.1826 154.756 70.808 156.438 70.1431 158.013C69.8956 158.603 70.8065 157.982 70.8434 157.955C71.0633 157.81 71.2743 157.652 71.4753 157.482C71.549 157.439 71.6069 157.392 71.649 157.366C74.9776 154.901 78.0018 152.05 80.6582 148.872C82.9514 146.294 84.9082 143.435 86.4819 140.363C88.9168 135.341 89.6203 129.653 88.4827 124.188ZM67.5999 115.042C67.5159 118.432 67.0979 121.806 66.3519 125.115C65.1883 123.793 64.1246 122.387 62.9347 121.087C60.1659 117.973 57.8911 114.454 56.1896 110.65C54.2603 106.629 53.246 102.231 53.2198 97.771C53.2625 96.1729 53.4779 94.584 53.8622 93.0321C54.0631 92.221 54.3128 91.4227 54.6099 90.6416C54.7574 90.2555 54.9153 89.8763 55.0838 89.5042C55.1733 89.3147 55.2576 89.1251 55.3524 88.9408C55.3505 88.9251 55.3505 88.9092 55.3524 88.8934C55.3945 88.8039 55.4471 88.7144 55.4945 88.6302C55.8894 87.8983 56.3265 87.1927 56.774 86.4924C56.8067 86.4542 56.8367 86.4137 56.8636 86.3713C56.9794 86.2028 57.1005 86.0396 57.2216 85.8763C57.3472 85.7363 57.4617 85.5867 57.5639 85.4288L57.5902 85.3972L57.7429 85.2445L57.964 85.0339C58.1378 84.8706 58.3116 84.7074 58.4906 84.5494L58.7065 84.3493L58.7802 84.2862L58.9224 84.1598L59.2857 83.8491C58.9278 84.7687 58.6855 85.729 58.5643 86.7083C58.3377 88.7234 58.4696 90.7628 58.954 92.732C59.8754 96.6179 61.9132 100.104 64.2668 103.3L64.4616 103.553C64.7197 104.053 64.9882 104.564 65.2093 105.08C65.9313 106.621 66.5112 108.225 66.9417 109.871C67.3856 111.559 67.6069 113.297 67.5999 115.042ZM78.2677 149.652L78.2203 149.689L78.3941 149.536L78.273 149.647L78.2677 149.652ZM78.3783 149.536L78.5152 149.41L78.4625 149.462C78.4205 149.499 78.4204 149.499 78.3783 149.536ZM78.3783 149.578L78.4678 149.483L78.5731 149.394L78.3783 149.578ZM78.5994 149.362L78.5152 149.436L78.5836 149.362L78.8101 149.157L78.5994 149.362ZM81.9904 137.173C81.918 140.088 81.3223 142.966 80.2317 145.671C80.0632 146.082 79.8895 146.492 79.7052 146.893C79.6157 147.098 79.5104 147.293 79.4156 147.498L79.305 147.714C79.0891 148.109 78.868 148.493 78.6416 148.878C78.5415 149.041 78.4415 149.204 78.3362 149.362C78.2309 149.52 78.0782 149.741 78.0202 149.826L77.9623 149.873L77.4884 150.22C78.6685 146.831 78.6088 143.134 77.3199 139.784C75.9878 136.162 73.6604 132.939 71.1488 130.054C70.7118 129.527 70.2642 129.053 69.8114 128.564C71.3568 125.351 72.5384 121.976 73.334 118.501C73.5657 117.448 73.7763 116.442 73.9606 115.405C75.7045 117.887 77.2554 120.5 78.5994 123.219C80.5951 127.647 82.022 132.328 81.9904 137.173Z" fill="#293170"/>
<path d="M24.9811 49.2154C31.5314 58.6143 33.6586 68.4134 30.2782 79.4551C29.2223 82.8598 27.838 86.154 26.1448 89.291C26.3765 89.1857 26.6082 89.0698 26.8451 88.9434C29.3409 87.6007 30.7205 85.8105 32.2317 83.8044L32.2949 83.7201C34.6264 80.5943 35.9605 76.8378 36.1229 72.9417C36.4833 65.6423 34.54 58.4144 30.5678 52.2799C28.1193 48.3308 25.0496 44.8293 22.201 41.175C17.3267 35.0039 15.1031 27.1495 16.0193 19.3391C16.4458 16.0271 17.5463 12.652 19.9473 10.3299C22.3484 8.0078 26.2659 7.06002 29.1303 8.80289C29.6042 9.09796 30.047 9.44019 30.452 9.82439L30.5678 10.1298V10.1719C30.5683 10.1807 30.5683 10.1895 30.5678 10.1982C30.6889 10.5668 30.7995 10.9301 30.8995 11.304C31.0742 11.9633 31.2148 12.6311 31.3208 13.3049C31.6295 15.334 31.6649 17.3953 31.4261 19.4339C30.4783 27.0899 26.6555 34.1298 22.6959 40.6327L22.7644 40.7222C23.5015 41.67 24.2756 42.6336 25.018 43.5603C26.1817 45.003 27.3664 46.4774 28.4985 47.9991C31.8157 42.5651 34.7854 36.9416 36.2808 30.7494C36.9873 27.979 37.2486 25.1139 37.0549 22.2614C36.7951 19.4474 36.0035 16.7083 34.7223 14.1895C34.5485 13.8314 34.3642 13.4734 34.1957 13.1364C33.4713 11.7864 32.6439 10.4943 31.7209 9.27152C30.6876 7.52557 29.4829 5.88693 28.1246 4.37989C26.1764 2.21578 23.7016 0.241225 20.7951 0.0200746C17.9728 -0.19581 15.2084 1.35224 13.4234 3.56901C11.6384 5.78577 10.7907 8.59753 10.4115 11.404C9.56381 17.4067 10.7169 23.5778 12.96 29.2119C15.8718 36.473 20.5318 42.86 24.9811 49.2154Z" fill="#293170"/>
</svg>
