<svg width="31" height="30" viewBox="0 0 31 30" fill="none" xmlns="http://www.w3.org/2000/svg">
<g clip-path="url(#clip0_1_781)">
<path d="M23.3801 0H7.26965C3.34426 0 0.162109 3.148 0.162109 7.03125V22.9688C0.162109 26.852 3.34426 30 7.26965 30H23.3801C27.3055 30 30.4876 26.852 30.4876 22.9688V7.03125C30.4876 3.148 27.3055 0 23.3801 0Z" fill="url(#paint0_radial_1_781)"/>
<path d="M23.3801 0H7.26965C3.34426 0 0.162109 3.148 0.162109 7.03125V22.9688C0.162109 26.852 3.34426 30 7.26965 30H23.3801C27.3055 30 30.4876 26.852 30.4876 22.9688V7.03125C30.4876 3.148 27.3055 0 23.3801 0Z" fill="url(#paint1_radial_1_781)"/>
<path d="M15.3255 3.28125C12.1084 3.28125 11.7045 3.2952 10.4411 3.35203C9.17995 3.40922 8.3191 3.60668 7.56594 3.89648C6.78672 4.19578 6.12584 4.59621 5.46744 5.24777C4.80845 5.89922 4.40368 6.55301 4.10019 7.32352C3.80641 8.06883 3.60657 8.92078 3.54983 10.1678C3.49332 11.4178 3.47852 11.8174 3.47852 15.0001C3.47852 18.1828 3.49273 18.581 3.55006 19.8309C3.60811 21.0785 3.80771 21.9301 4.10043 22.6752C4.40321 23.4461 4.80798 24.0998 5.46661 24.7512C6.12489 25.4031 6.78577 25.8045 7.5644 26.1038C8.31816 26.3936 9.17912 26.591 10.44 26.6482C11.7036 26.705 12.1071 26.719 15.3241 26.719C18.5415 26.719 18.944 26.705 20.2075 26.6482C21.4686 26.591 22.3304 26.3936 23.0842 26.1038C23.8631 25.8045 24.523 25.4031 25.1811 24.7512C25.8401 24.0998 26.2448 23.4461 26.5484 22.6755C26.8396 21.9301 27.0395 21.0783 27.0988 19.8312C27.1555 18.5812 27.1703 18.1828 27.1703 15.0001C27.1703 11.8174 27.1555 11.418 27.0988 10.168C27.0395 8.92043 26.8396 8.06895 26.5484 7.32387C26.2448 6.55301 25.8401 5.89922 25.1811 5.24777C24.5223 4.59598 23.8633 4.19555 23.0835 3.8966C22.3283 3.60668 21.467 3.4091 20.2059 3.35203C18.9423 3.2952 18.54 3.28125 15.3218 3.28125H15.3255ZM14.2628 5.39309C14.5782 5.39262 14.9302 5.39309 15.3255 5.39309C18.4885 5.39309 18.8633 5.40434 20.1123 5.46047C21.2673 5.51273 21.8941 5.70363 22.3117 5.86406C22.8646 6.07641 23.2587 6.33035 23.673 6.74063C24.0877 7.15078 24.3442 7.54137 24.5595 8.08828C24.7216 8.50078 24.9149 9.12094 24.9674 10.2635C25.0242 11.4989 25.0365 11.8699 25.0365 14.9974C25.0365 18.1249 25.0242 18.4961 24.9674 19.7313C24.9146 20.8739 24.7216 21.4941 24.5595 21.9067C24.3448 22.4536 24.0877 22.843 23.673 23.2529C23.2584 23.6631 22.8648 23.9169 22.3117 24.1294C21.8946 24.2905 21.2673 24.4809 20.1123 24.5332C18.8635 24.5893 18.4885 24.6015 15.3255 24.6015C12.1624 24.6015 11.7875 24.5893 10.5388 24.5332C9.38381 24.4805 8.75693 24.2896 8.339 24.1291C7.78628 23.9167 7.39133 23.6629 6.97673 23.2527C6.56212 22.8425 6.30554 22.4529 6.0903 21.9057C5.92813 21.4931 5.73492 20.873 5.68233 19.7304C5.62558 18.495 5.61421 18.124 5.61421 14.9945C5.61421 11.8651 5.62558 11.496 5.68233 10.2606C5.73516 9.11801 5.92813 8.49785 6.0903 8.08477C6.30506 7.53785 6.56212 7.14727 6.97685 6.73711C7.39145 6.32695 7.78628 6.07301 8.33912 5.8602C8.75669 5.69906 9.38381 5.50863 10.5388 5.45613C11.6316 5.40727 12.0551 5.39262 14.2628 5.39016V5.39309ZM21.6488 7.33887C20.864 7.33887 20.2273 7.96816 20.2273 8.74465C20.2273 9.52102 20.864 10.1509 21.6488 10.1509C22.4336 10.1509 23.0703 9.52102 23.0703 8.74465C23.0703 7.96828 22.4336 7.3384 21.6488 7.3384V7.33887ZM15.3255 8.98195C11.966 8.98195 9.24214 11.6766 9.24214 15.0001C9.24214 18.3237 11.966 21.017 15.3255 21.017C18.6851 21.017 21.408 18.3237 21.408 15.0001C21.408 11.6767 18.6849 8.98195 15.3252 8.98195H15.3255ZM15.3255 11.0938C17.5062 11.0938 19.2742 12.8426 19.2742 15.0001C19.2742 17.1574 17.5062 18.9064 15.3255 18.9064C13.1446 18.9064 11.3769 17.1574 11.3769 15.0001C11.3769 12.8426 13.1446 11.0938 15.3255 11.0938Z" fill="white"/>
</g>
<defs>
<radialGradient id="paint0_radial_1_781" cx="0" cy="0" r="1" gradientUnits="userSpaceOnUse" gradientTransform="translate(8.21732 32.3106) rotate(-90) scale(29.7322 27.9534)">
<stop stop-color="#FFDD55"/>
<stop offset="0.1" stop-color="#FFDD55"/>
<stop offset="0.5" stop-color="#FF543E"/>
<stop offset="1" stop-color="#C837AB"/>
</radialGradient>
<radialGradient id="paint1_radial_1_781" cx="0" cy="0" r="1" gradientUnits="userSpaceOnUse" gradientTransform="translate(-4.91753 2.16105) rotate(78.5614) scale(13.2961 55.3549)">
<stop stop-color="#3771C8"/>
<stop offset="0.128" stop-color="#3771C8"/>
<stop offset="1" stop-color="#6600FF" stop-opacity="0"/>
</radialGradient>
<clipPath id="clip0_1_781">
<rect width="30.3255" height="30" fill="white" transform="translate(0.162109)"/>
</clipPath>
</defs>
</svg>
