<svg width="1440" height="592" viewBox="0 0 1440 592" fill="none" xmlns="http://www.w3.org/2000/svg">
<path d="M1440 18.844H0V591.844H1440V18.844Z" fill="#293170"/>
<path opacity="0.87" d="M0 18.844H1440V591.844H0V18.844Z" fill="url(#paint0_linear_0_1)"/>
<path opacity="0.459" d="M1258.67 276.235L1222.88 293.982L1246.81 315.218L1258.67 276.235H1258.67ZM1138.14 318.43L1148.04 353.582L1174.66 332.85L1138.14 318.43H1138.14ZM1265.29 336.774L1237.71 345.08L1241.37 383.9L1265.29 336.774H1265.29ZM1242.4 378.624L1239.32 345.903L1262.56 338.9L1242.4 378.622L1242.4 378.624ZM1148.92 351.184L1140.33 320.66L1172.04 333.181L1148.92 351.184ZM1399.76 305.817L1328.29 245.283C1329.17 244.545 1329.76 243.619 1329.99 242.618L1434.45 246.496L1406.14 303.624C1405.95 303.613 1405.77 303.608 1405.58 303.608C1404.47 303.598 1403.36 303.792 1402.35 304.175C1401.35 304.557 1400.46 305.118 1399.76 305.816L1399.76 305.817ZM1334.29 345.773L1248.1 178.787L1318.44 238.375C1317.47 239.34 1316.95 240.55 1316.99 241.791C1317.02 243.032 1317.6 244.224 1318.62 245.155C1319.65 246.087 1321.05 246.698 1322.58 246.881C1324.11 247.064 1325.68 246.807 1327 246.155L1327.36 245.93L1399.04 306.644C1398.41 307.5 1398.05 308.465 1397.99 309.457C1397.94 310.448 1398.18 311.436 1398.71 312.335L1342.64 348.641L1342.56 348.504C1341.88 347.616 1340.92 346.883 1339.79 346.376C1338.65 345.869 1337.37 345.604 1336.07 345.608C1335.47 345.608 1334.88 345.664 1334.3 345.774L1334.29 345.773ZM1319.31 237.66L1247.32 176.682L1252.24 175.042L1364.25 209.004L1328.49 238.206C1327.87 237.636 1327.11 237.178 1326.25 236.865C1325.4 236.551 1324.47 236.388 1323.52 236.388C1322.32 236.388 1321.13 236.658 1320.1 237.167C1319.82 237.315 1319.55 237.48 1319.3 237.66H1319.31ZM1439.99 109.461L1238.57 170.899L1250.55 174.532L1245.18 176.319L1245.72 176.777L1333.12 346.078C1332.75 346.196 1332.38 346.337 1332.04 346.5C1330.62 347.202 1329.52 348.255 1328.92 349.5C1328.31 350.745 1328.23 352.114 1328.69 353.4C1329.14 354.685 1330.11 355.817 1331.44 356.624C1332.77 357.43 1334.39 357.868 1336.05 357.871C1337.52 357.869 1338.96 357.529 1340.19 356.891C1341.43 356.254 1342.4 355.345 1343.01 354.275L1440 370.92V369.904L1343.42 353.328C1343.84 352.086 1343.77 350.769 1343.2 349.564L1399.33 313.217C1400.38 314.45 1401.95 315.332 1403.76 315.696C1405.57 316.06 1407.48 315.88 1409.13 315.19L1439.99 341.337V339.893L1410.18 314.645C1411.04 314.131 1411.75 313.478 1412.27 312.728L1439.99 317.949V316.93L1412.79 311.808C1413.27 310.745 1413.38 309.595 1413.1 308.487C1412.81 307.379 1412.15 306.355 1411.18 305.53L1439.99 286.878V285.605L1410.24 304.869C1409.4 304.349 1408.43 303.975 1407.4 303.771L1435.76 246.547L1439.99 246.706V245.707L1436.25 245.568L1439.99 238.015V235.331L1434.94 245.517L1330.1 241.627C1330.1 240.713 1329.8 239.816 1329.23 239.024L1365.51 209.387L1439.99 231.972V230.91L1366.46 208.613L1439.99 148.556V147.14L1365.2 208.231L1253.91 174.488L1439.99 112.578V111.503L1252.22 173.976L1242.06 170.896L1439.99 110.524V109.461Z" fill="#F8F8FA"/>
<path opacity="0.11" d="M273.781 156.884L326.052 131.024L291.1 100.081L273.779 156.884H273.781ZM449.79 95.3999L435.337 44.178L396.46 74.3876L449.789 95.3975L449.79 95.3999ZM264.121 68.6696L304.398 56.5666L299.057 0L264.121 68.6696ZM297.549 7.6877L302.049 55.3665L268.107 65.5683L297.549 7.6877ZM434.04 47.6725L446.592 92.1497L400.278 73.9053L434.04 47.6725ZM67.7461 113.779L172.108 201.985C170.829 203.059 169.969 204.409 169.633 205.869L17.0801 200.218L58.4278 116.974C58.6987 116.989 58.9704 116.997 59.2427 116.997C60.871 117.012 62.4822 116.73 63.9545 116.173C65.4268 115.615 66.7216 114.797 67.7411 113.78L67.7461 113.779ZM163.339 55.5575L289.219 298.879L186.494 212.051C187.909 210.642 188.657 208.877 188.605 207.069C188.554 205.261 187.706 203.526 186.211 202.17C184.717 200.813 182.673 199.924 180.439 199.658C178.205 199.391 175.926 199.766 174.003 200.715L173.469 201.043L68.8025 112.573C69.7188 111.326 70.2419 109.919 70.3264 108.474C70.4109 107.029 70.0543 105.59 69.2874 104.28L151.162 51.3778L151.282 51.5768C152.277 52.8713 153.671 53.9391 155.33 54.6778C156.989 55.4164 158.857 55.801 160.756 55.7947C161.625 55.7951 162.492 55.715 163.339 55.5559V55.5575ZM185.231 213.092L290.357 301.947L283.166 304.334L119.604 254.848L171.812 212.296C172.714 213.127 173.829 213.794 175.08 214.251C176.332 214.708 177.691 214.945 179.066 214.945C180.83 214.945 182.558 214.552 184.059 213.81C184.471 213.596 184.863 213.356 185.229 213.094L185.231 213.092ZM9 399.895L303.127 310.377L285.637 305.084L293.479 302.479L292.693 301.813L165.068 55.1174C165.614 54.9468 166.142 54.7413 166.647 54.5031C168.135 53.7709 169.388 52.7697 170.305 51.5797C171.223 50.3897 171.779 49.044 171.929 47.6507C172.079 46.2575 171.82 44.8553 171.171 43.5569C170.523 42.2585 169.503 41.1 168.194 40.1743C166.885 39.2486 165.323 38.5815 163.634 38.2265C161.945 37.8716 160.176 37.8387 158.468 38.1305C156.76 38.4223 155.161 39.0307 153.8 39.9068C152.439 40.7829 151.353 41.9023 150.63 43.1753L9 18.9208V20.4018L150.037 44.556C149.419 46.3651 149.53 48.2844 150.354 50.0401L68.3921 103.002C66.8582 101.205 64.5551 99.9199 61.9183 99.3902C59.2815 98.8605 56.4937 99.123 54.0822 100.128L9 62.022V64.1262L52.5259 100.917C51.2743 101.665 50.2346 102.616 49.4752 103.709L9 96.101V97.5868L48.7179 105.05C48.1458 106.309 47.9354 107.656 48.1023 108.989C48.2691 110.323 48.809 111.609 49.6819 112.752C50.0793 113.27 50.5411 113.754 51.0602 114.197L9 141.374V143.233L52.4445 115.163C53.6724 115.921 55.0836 116.466 56.5884 116.763L15.1711 200.148L9 199.919V201.367L14.4656 201.569L9 212.575V216.486L16.3736 201.64L169.473 207.308C169.476 208.641 169.916 209.949 170.748 211.103L117.762 254.288L9 221.381V222.927L116.372 255.416L9 342.929V344.994L118.22 255.973L280.731 305.143L9 395.355V396.921L283.204 305.89L298.033 310.378L9 398.347V399.893" fill="#F8F8FA"/>
<defs>
<linearGradient id="paint0_linear_0_1" x1="-237.6" y1="619.348" x2="370.435" y2="-639.855" gradientUnits="userSpaceOnUse">
<stop offset="0.63" stop-color="#293170"/>
<stop offset="1" stop-color="#5335CA"/>
</linearGradient>
</defs>
</svg>
