<svg width="84" height="84" viewBox="0 0 84 84" fill="none" xmlns="http://www.w3.org/2000/svg">
<path d="M28.9999 3H24.6666C20.6366 3 18.6216 3 16.9706 3.442C14.7655 4.03242 12.7547 5.19309 11.1405 6.80727C9.52634 8.42145 8.36568 10.4322 7.77525 12.6373C7.33325 14.2883 7.33325 16.3033 7.33325 20.3333M54.9999 3H59.3333C63.3633 3 65.3782 3 67.0293 3.442C69.2344 4.03242 71.2451 5.19309 72.8593 6.80727C74.4735 8.42145 75.6342 10.4322 76.2246 12.6373C76.6666 14.2883 76.6666 16.3033 76.6666 20.3333M76.6666 55V59.3333C76.6666 67.4367 76.6666 71.484 74.9246 74.5C73.7836 76.4761 72.1427 78.1171 70.1666 79.258C67.1506 81 63.1033 81 54.9999 81M7.33325 55V59.3333C7.33325 67.4367 7.33325 71.484 9.07525 74.5C10.2162 76.4761 11.8572 78.1171 13.8333 79.258C16.8493 81 20.8966 81 28.9999 81" stroke="white" stroke-width="5" stroke-linejoin="round"/>
<path d="M3 55H81M20.3333 37.6667V55H63.6667V37.6667C63.6667 33.5803 63.6667 31.5393 62.397 30.2697C61.1273 29 59.0863 29 55 29H29C24.9137 29 22.8727 29 21.603 30.2697C20.3333 31.5393 20.3333 33.5803 20.3333 37.6667Z" stroke="white" stroke-width="5" stroke-linecap="round" stroke-linejoin="round"/>
</svg>
