<svg width="18" height="15" viewBox="0 0 18 15" fill="none" xmlns="http://www.w3.org/2000/svg">
<path d="M17.3183 3.18803L8.09831 13.608C8.07231 13.638 8.03532 13.65 8.00732 13.677L7.21832 14.569L0.518306 8.66905C0.255015 8.43625 0.0948363 8.1085 0.0729017 7.75773C0.0509671 7.40697 0.16908 7.0618 0.401317 6.79802L0.668315 6.49803C0.902419 6.23512 1.23088 6.07536 1.58222 6.05345C1.93357 6.03154 2.27935 6.14924 2.54431 6.38102L6.97131 10.281L15.0283 1.17503C15.252 0.923748 15.566 0.771019 15.9018 0.750043C16.2376 0.729068 16.5681 0.841544 16.8213 1.06303L17.2113 1.40605C17.4605 1.62898 17.6115 1.94127 17.6316 2.27501C17.6516 2.60874 17.539 2.93689 17.3183 3.18803Z" fill="#4EBB87"/>
</svg>
