<svg width="96" height="96" viewBox="0 0 96 96" fill="none" xmlns="http://www.w3.org/2000/svg">
<path d="M60 64L84 88M80 4V28M68 16H92M40 72C43.677 72 47.318 71.2758 50.7151 69.8686C54.1123 68.4615 57.1989 66.399 59.799 63.799C62.399 61.1989 64.4615 58.1123 65.8686 54.7151C67.2758 51.318 68 47.677 68 44C68 40.323 67.2758 36.682 65.8686 33.2849C64.4615 29.8877 62.399 26.8011 59.799 24.201C57.1989 21.601 54.1123 19.5385 50.7151 18.1314C47.318 16.7242 43.677 16 40 16C32.5739 16 25.452 18.95 20.201 24.201C14.95 29.452 12 36.5739 12 44C12 51.4261 14.95 58.548 20.201 63.799C25.452 69.05 32.5739 72 40 72Z" stroke="white" stroke-width="5"/>
</svg>
