<svg width="528" height="475" viewBox="0 0 528 475" fill="none" xmlns="http://www.w3.org/2000/svg">
<g clip-path="url(#clip0_562_778)">
<path d="M130.688 475.013C188.185 475.013 234.795 470.891 234.795 465.807C234.795 460.723 188.185 456.601 130.688 456.601C73.1914 456.601 26.5811 460.723 26.5811 465.807C26.5811 470.891 73.1914 475.013 130.688 475.013Z" fill="#A5AFE1" fill-opacity="0.2"/>
<path fill-rule="evenodd" clip-rule="evenodd" d="M188.532 415.865L194.699 422.915C194.699 422.915 196.692 447.757 198.131 450.662C199.57 453.567 216.646 459.971 217.542 465.807H174.816L166.255 422.915L188.532 415.865Z" fill="#151E35"/>
<path d="M194.712 422.915H166.255C166.255 422.915 161.479 403.471 155.642 378.719C147.753 345.421 137.882 302.542 135.005 284.466C133.412 274.459 131.384 263.149 129.344 252.381C124.981 229.217 120.605 208.482 120.605 208.482L125.688 207.19L134.922 204.905L156.597 199.56L169.44 208.443C169.44 208.443 188.108 310.288 191.645 362.606C195.183 414.923 194.712 422.915 194.712 422.915Z" fill="#293170"/>
<path fill-rule="evenodd" clip-rule="evenodd" d="M155.618 378.719C147.729 345.421 137.858 302.542 134.981 284.465C133.389 274.459 131.36 263.149 129.32 252.38C127.563 231.942 126.254 215.053 125.664 207.255C125.428 204.259 125.311 202.594 125.311 202.594L134.898 204.97L156.573 210.328C156.573 210.328 152.068 236.512 148.318 250.444C144.568 264.375 155.583 312.29 159.533 342.554C162.163 363.225 160.052 372.263 155.618 378.719Z" fill="#0D1737" fill-opacity="0.4"/>
<path fill-rule="evenodd" clip-rule="evenodd" d="M88.2578 214.059C88.2578 214.059 88.8475 224.827 102.338 220.838C115.829 216.848 108.105 199.25 108.105 199.25C108.105 199.25 88.5408 195.493 88.2578 214.059Z" fill="#5D6261"/>
<path fill-rule="evenodd" clip-rule="evenodd" d="M47.6897 411.424H37.9489C37.9489 411.424 18.8681 427.524 20.4011 434.497C21.9342 441.469 37.0408 464.942 41.015 465.807H58.6453C58.2492 463.962 57.421 462.262 56.2423 460.874C55.0637 459.486 53.5751 458.459 51.9234 457.892C46.1921 455.956 44.4113 446.633 44.3995 443.173C44.3878 439.713 53.0791 434.497 53.0791 434.497L47.6897 411.424Z" fill="#151E35"/>
<path fill-rule="evenodd" clip-rule="evenodd" d="M141.832 211.851C141.832 211.851 139.745 334.162 127.091 362.619C114.437 391.075 66.7709 425.523 53.0794 434.497C53.0794 434.497 44.3173 430.21 37.9492 411.424C45.0249 408.7 79.9317 345.64 88.2574 337.57C88.2574 337.57 92.2198 241.341 94.4368 211.038C96.6539 180.735 141.832 211.851 141.832 211.851Z" fill="#293170"/>
<path fill-rule="evenodd" clip-rule="evenodd" d="M261.6 184.789C261.6 184.789 259.949 212.277 255.055 214.059C253.144 214.756 246.965 213.065 239.052 210.186C236.941 209.411 234.712 208.559 232.401 207.603C221.268 203.188 208.402 197.274 199.204 192.587C198.662 192.303 198.119 192.006 197.588 191.697C180.123 181.367 167.057 152.962 167.057 152.962C167.057 152.962 168.944 201.277 169.415 208.404C169.887 215.531 162.752 215.234 137.752 211.077C120.463 208.197 106.795 208.042 97.656 210.031C94.3014 210.598 91.0898 211.917 88.2217 213.904C88.2217 213.904 87.4316 197.558 88.2217 190.664C87.8915 190.857 68.2919 202.09 59.919 182.245C51.5461 162.4 65.9569 117.598 74.0704 106.533C82.1838 95.4674 109.449 92.2137 109.449 92.2137L133.707 91.5165L145.499 91.1808L148.224 92.2137C148.224 92.2137 150.759 92.8851 154.403 94.1762C161.821 96.836 173.79 102.117 177.883 109.67C183.979 120.877 207.023 161.316 215.301 167.294C218.521 169.618 226.269 172.781 234.512 175.764C236.611 176.526 238.745 177.274 240.844 177.998C251.658 181.806 261.6 184.789 261.6 184.789Z" fill="#1C2FA0"/>
<path fill-rule="evenodd" clip-rule="evenodd" d="M151.703 98.1659C145.952 95.2395 139.914 93.0432 133.707 91.6197L145.5 91.2841L148.224 92.317C148.224 92.317 150.759 92.9884 154.403 94.2795C156.267 97.8431 158.118 101.523 151.703 98.1659Z" fill="#006B47" fill-opacity="0.2"/>
<path fill-rule="evenodd" clip-rule="evenodd" d="M148.012 96.3841C147.175 100.413 143.92 106.042 132.434 106.584C114.414 107.423 109.532 99.5216 109.45 92.3816C109.45 92.3816 115.24 91.2066 115.428 87.7205C115.687 85.8245 115.687 83.8969 115.428 82.0008C114.986 80.211 114.119 78.5809 112.917 77.2752C109.379 73.0531 97.468 57.7014 104.473 43.2405C110.947 29.8384 132.127 24.7384 139.439 36.6557C140.044 37.6464 140.539 38.7127 140.913 39.8319C140.913 39.8319 149.463 61.2391 145.441 71.1422C144.755 72.9106 143.766 74.519 142.528 75.8807H142.458C142.045 76.3443 141.604 76.7757 141.137 77.1719L140.972 77.3139C139.545 78.4759 138.165 79.2377 137.151 80.2706C135.759 81.678 135.04 83.5889 135.806 87.6947C135.806 87.6947 143.896 90.7289 148.165 92.3558C148.34 93.6975 148.288 95.0629 148.012 96.3841Z" fill="#FF9E5F"/>
<path fill-rule="evenodd" clip-rule="evenodd" d="M148.012 96.3842C142.947 94.1799 137.719 92.4522 132.386 91.2196C128.955 90.3287 127.834 83.1628 132.386 82.3365C134.093 81.9365 135.719 81.2016 137.186 80.1674C135.795 81.5747 135.075 83.4856 135.842 87.5915C135.842 87.5915 143.932 90.6256 148.201 92.2525C148.375 93.6305 148.311 95.0321 148.012 96.3842Z" fill="#F78158"/>
<path fill-rule="evenodd" clip-rule="evenodd" d="M139.474 36.5653C138.943 39.1476 137.115 41.7299 132.398 43.1501C121.289 46.5329 125.546 53.1823 123.813 53.9699C122.079 54.7575 116.36 52.6142 115.475 58.773C114.591 64.9318 120.959 64.9318 120.959 64.9318C120.959 64.9318 118.011 76.2035 115.475 81.9103C115.032 80.1206 114.166 78.4905 112.963 77.1848C109.426 72.9627 97.5149 57.611 104.52 43.1501C110.982 29.7738 132.162 24.6738 139.474 36.5653Z" fill="url(#paint0_linear_562_778)"/>
<path fill-rule="evenodd" clip-rule="evenodd" d="M145.842 164.389C132.398 171.451 110.193 189.669 102.338 200.541C100.274 203.418 98.6784 206.663 97.6214 210.134C94.2668 210.701 91.0551 212.02 88.1871 214.008C88.1871 214.008 87.397 197.662 88.1871 190.767C88.1871 190.767 121.207 172.497 131.431 166.132L132.316 155.519C132.316 155.519 134.592 141.316 145.771 137.055C156.951 132.794 146.585 144.466 149.828 146.816C153.071 149.166 159.298 157.352 145.842 164.389Z" fill="#006B47" fill-opacity="0.2"/>
<path fill-rule="evenodd" clip-rule="evenodd" d="M197.541 191.735C180.076 181.406 167.01 153.001 167.01 153.001C167.01 153.001 166.397 140.761 167.01 136.668C167.623 132.575 175.265 135.312 175.961 150.16C176.656 165.009 181.928 164.505 188.508 174.227C194.004 182.323 200.796 189.657 197.541 191.735Z" fill="#006B47" fill-opacity="0.2"/>
<path fill-rule="evenodd" clip-rule="evenodd" d="M239.053 210.186C236.942 209.411 234.713 208.559 232.401 207.603C232.755 205.512 233.923 185.912 234.489 175.802C236.588 176.564 238.722 177.313 240.821 178.036C242.119 189.463 241.175 207.113 239.053 210.186Z" fill="#006B47" fill-opacity="0.2"/>
<path fill-rule="evenodd" clip-rule="evenodd" d="M89.5664 154.215C89.5664 154.215 89.8258 143.356 92.3495 140.012C94.8732 136.668 92.4203 148.146 95.5925 146.842C98.7648 145.538 104.378 146.61 89.5664 154.215Z" fill="#006B47" fill-opacity="0.2"/>
<path fill-rule="evenodd" clip-rule="evenodd" d="M159.498 126.403C159.495 124.894 158.946 123.448 157.971 122.381C156.997 121.314 155.676 120.713 154.297 120.709H143.884C142.504 120.709 141.18 121.309 140.203 122.376C139.226 123.444 138.675 124.892 138.672 126.403V154.06C138.672 155.573 139.221 157.025 140.199 158.095C141.176 159.165 142.502 159.767 143.884 159.767H154.297C155.678 159.763 157.001 159.16 157.975 158.09C158.95 157.021 159.498 155.571 159.498 154.06V126.403Z" fill="#2E2E2E"/>
<path fill-rule="evenodd" clip-rule="evenodd" d="M135.936 137.649L138.671 132.084V136.151L135.936 137.649Z" fill="#FF9E5F"/>
<path fill-rule="evenodd" clip-rule="evenodd" d="M133.094 158.553L129.792 164.415C129.792 164.415 131.974 169.76 134.214 161.574C136.455 153.388 133.094 158.553 133.094 158.553Z" fill="#2D467B"/>
<path fill-rule="evenodd" clip-rule="evenodd" d="M129.792 141.471C129.792 141.471 123.719 154.499 129.792 164.415C129.792 164.415 140.064 157.959 144.132 154.318C148.201 150.677 149.203 147.862 146.219 147.075C143.236 146.287 153.543 139.328 149.675 138.308C145.807 137.288 147.894 136.474 153.79 132.407C159.687 128.34 155.772 127.966 146.219 132.407C140.569 135.033 135.081 138.06 129.792 141.471Z" fill="#FF9E5F"/>
<path fill-rule="evenodd" clip-rule="evenodd" d="M165.854 420.191C165.854 420.191 164.439 419.119 165.146 422.631C165.854 426.143 169.474 425.898 174.498 425.936C179.522 425.975 194.546 426.956 196.103 425.936C197.659 424.916 196.869 421.624 196.103 420.191C195.336 418.758 168.248 418.331 165.854 420.191Z" fill="#BD9956"/>
<path fill-rule="evenodd" clip-rule="evenodd" d="M38.1968 410.623C38.1968 410.623 37.6072 409.836 36.1213 411.721C33.9986 414.432 36.3571 416.963 39.2228 420.552C42.0885 424.142 50.0014 435.465 51.6171 435.891C53.2327 436.317 55.0016 433.593 55.5441 432.095C56.0865 430.597 40.8384 411.088 38.1968 410.623Z" fill="#BD9956"/>
<path d="M453.529 0H269.502C250.627 0 235.326 16.7524 235.326 37.4174V425.923C235.326 446.589 250.627 463.341 269.502 463.341H453.529C472.403 463.341 487.704 446.589 487.704 425.923V37.4174C487.704 16.7524 472.403 0 453.529 0Z" fill="#293170"/>
<path d="M470.109 31.8009H252.921V431.023H470.109V31.8009Z" fill="white"/>
<path fill-rule="evenodd" clip-rule="evenodd" d="M390.201 16.4363C390.201 15.2549 389.772 14.1219 389.009 13.2865C388.246 12.4511 387.212 11.9818 386.133 11.9818H336.909C336.375 11.9801 335.845 12.0942 335.351 12.3174C334.856 12.5407 334.407 12.8687 334.029 13.2827C333.651 13.6967 333.351 14.1884 333.147 14.7296C332.943 15.2708 332.839 15.8508 332.841 16.4363C332.839 17.0223 332.943 17.603 333.147 18.1449C333.351 18.6868 333.65 19.1794 334.028 19.5944C334.406 20.0094 334.855 20.3387 335.35 20.5633C335.844 20.788 336.374 20.9036 336.909 20.9036H386.133C387.213 20.9002 388.248 20.428 389.01 19.5906C389.773 18.7532 390.201 17.6189 390.201 16.4363Z" fill="white"/>
<path d="M399.8 112.02C399.8 109.671 398.948 107.418 397.43 105.757C395.913 104.096 393.856 103.163 391.71 103.163H294.679C292.533 103.163 290.475 104.096 288.958 105.757C287.441 107.418 286.589 109.671 286.589 112.02V235.402C286.592 237.749 287.446 239.998 288.962 241.657C290.479 243.315 292.535 244.246 294.679 244.246H391.71C393.854 244.246 395.91 243.315 397.426 241.657C398.943 239.998 399.797 237.749 399.8 235.402V112.02Z" fill="url(#paint1_linear_562_778)"/>
<path fill-rule="evenodd" clip-rule="evenodd" d="M388.444 216.306C386.639 221.78 380.189 223.278 372.865 223.433C365.542 223.588 356.98 224.582 356.98 224.582L354.386 224.143L337.263 221.199C337.263 221.199 342.287 205.615 340.801 200.67C339.315 195.725 336.673 194.731 335.034 188.327C330.678 185.391 326.477 182.188 322.451 178.733C318.125 175.148 314.195 171.023 310.741 166.442C304.467 157.571 317.687 149.218 329.232 145.422C331.864 144.533 334.558 143.881 337.286 143.472V151.077C337.286 151.077 335.706 151.942 333.631 153.207C329.692 155.622 323.96 159.521 323.89 161.819C323.784 165.305 343.938 165.899 355.223 165.822C366.509 165.744 371.58 167.216 377.689 177.378C383.797 187.539 383.585 195.053 383.585 195.053C383.585 195.053 390.26 210.87 388.444 216.306Z" fill="#BDBDBD"/>
<path fill-rule="evenodd" clip-rule="evenodd" d="M335.011 180.037C334.337 182.764 334.337 185.638 335.011 188.365C330.655 185.43 326.454 182.227 322.428 178.772C327.027 181.303 336.19 176.009 335.011 180.037Z" fill="#AAAAAA"/>
<path fill-rule="evenodd" clip-rule="evenodd" d="M337.263 143.511V151.116C337.263 151.116 335.682 151.981 333.607 153.246C331.802 150.914 330.32 148.304 329.208 145.499C331.839 144.598 334.533 143.933 337.263 143.511Z" fill="#F6905A"/>
<path fill-rule="evenodd" clip-rule="evenodd" d="M364.08 184.04C364.08 184.04 374.21 200.903 374.575 205.396C374.941 209.889 359.245 212.303 356.202 216.771C355.778 217.336 355.462 217.989 355.271 218.691C355.081 219.392 355.02 220.128 355.092 220.855C355.165 221.583 355.369 222.287 355.693 222.927C356.018 223.567 356.455 224.13 356.98 224.582C356.98 224.582 350.07 224.582 350.53 218.617C350.99 212.652 359.386 212.962 361.521 209.385C363.655 205.809 361.403 203.472 364.08 201.187C366.757 198.901 369.351 198.927 365.625 191.038C361.898 183.149 364.08 184.04 364.08 184.04Z" fill="#AAAAAA"/>
<path fill-rule="evenodd" clip-rule="evenodd" d="M342.18 144.208C342.135 144.074 342.065 143.951 341.975 143.846C341.885 143.742 341.777 143.659 341.657 143.601C341.538 143.543 341.408 143.512 341.277 143.51C341.146 143.508 341.016 143.535 340.895 143.588L330.388 148.082C330.266 148.132 330.155 148.208 330.061 148.305C329.967 148.403 329.891 148.52 329.838 148.649C329.786 148.779 329.757 148.919 329.754 149.061C329.751 149.203 329.774 149.344 329.822 149.476L331.614 154.512C331.711 154.779 331.901 154.993 332.141 155.109C332.381 155.225 332.654 155.233 332.9 155.131L343.407 150.638C343.529 150.587 343.64 150.509 343.734 150.411C343.829 150.312 343.905 150.194 343.957 150.063C344.01 149.932 344.038 149.792 344.041 149.649C344.044 149.506 344.021 149.364 343.973 149.231L342.18 144.208Z" fill="#6F6F6F"/>
<path fill-rule="evenodd" clip-rule="evenodd" d="M399.8 219.159V235.57C399.797 237.869 398.961 240.072 397.475 241.697C395.989 243.321 393.975 244.233 391.875 244.233H294.514C292.415 244.23 290.403 243.316 288.918 241.693C287.432 240.069 286.595 237.868 286.589 235.57V221.006C304.073 218.525 321.674 217.167 339.303 216.939C342.982 216.878 346.72 216.844 350.518 216.835C352.393 216.835 354.268 216.835 356.119 216.835C355.589 217.158 350.754 220.386 356.98 224.582C356.98 224.582 365.53 223.588 372.865 223.433C379.316 223.291 385.083 222.142 387.606 218.101C391.828 218.41 395.908 218.759 399.8 219.159Z" fill="#737373"/>
<path fill-rule="evenodd" clip-rule="evenodd" d="M399.8 219.159V231.283C397.937 233.181 395.083 234.485 390.826 234.421C378.408 234.24 353.607 226.57 353.843 223.795C354.067 221.303 341.874 217.687 339.303 216.939C342.982 216.878 346.72 216.844 350.518 216.835C352.393 216.835 354.268 216.835 356.119 216.835C355.589 217.158 350.754 220.386 356.98 224.582C356.98 224.582 365.53 223.588 372.865 223.433C379.316 223.291 385.082 222.142 387.606 218.101C391.828 218.41 395.908 218.759 399.8 219.159Z" fill="#626262"/>
<path fill-rule="evenodd" clip-rule="evenodd" d="M337.959 141.51C337.959 141.51 334.326 150.806 335.128 157.546C335.93 164.285 341.98 162.478 342.204 165.861C342.428 169.243 346.921 174.408 355.247 165.861C355.247 165.861 352.476 164.66 353.537 158.23C354.598 151.8 344.421 138.333 337.959 141.51Z" fill="#FF9862"/>
<path fill-rule="evenodd" clip-rule="evenodd" d="M340.707 138.566C340.707 138.566 336.508 139.302 337.381 143.149C338.82 149.502 347.075 146.597 347.664 148.559C349.209 153.724 348.054 157.145 352.157 158.798C352.157 158.798 352.547 164.892 355.2 165.861C355.2 165.861 365.118 166.067 370.248 170.535C375.378 175.002 383.597 195.066 383.597 195.066C383.597 195.066 391.145 189.127 387.406 179.65C383.668 170.173 373.703 172.639 374.269 164.505C374.835 156.371 373.396 147.94 364.623 148.534C355.849 149.127 355.412 146.106 353.372 142.181C351.332 138.256 344.645 136.887 340.707 138.566Z" fill="black"/>
<path fill-rule="evenodd" clip-rule="evenodd" d="M356.167 216.835C356.167 216.835 353.16 220.502 356.981 224.582C356.981 224.582 353.844 228.275 350.506 227.823C347.169 227.371 349.032 220.076 356.167 216.835Z" fill="#FF9862"/>
<path fill-rule="evenodd" clip-rule="evenodd" d="M307.804 206.196C308.158 201.303 309.101 197.791 310.222 197.791C311.625 197.791 312.769 203.42 312.769 210.341C312.769 217.261 311.589 222.891 310.222 222.891C309.408 222.891 308.688 221.031 308.217 218.139C307.957 220.98 307.474 222.891 306.92 222.891C306.094 222.891 305.422 218.733 305.422 213.62C305.422 208.507 306.094 204.363 306.92 204.363C307.214 204.414 307.556 205.047 307.804 206.196Z" fill="#BD9956"/>
<path fill-rule="evenodd" clip-rule="evenodd" d="M316.047 216.758H315.057V223.381C315.057 223.81 314.979 224.234 314.829 224.629C314.679 225.025 314.459 225.384 314.182 225.687C313.905 225.989 313.576 226.228 313.214 226.391C312.852 226.554 312.464 226.637 312.073 226.635H306.118C305.33 226.635 304.574 226.292 304.016 225.682C303.459 225.072 303.146 224.244 303.146 223.381V216.758H302.155V213.22H316.047V216.758Z" fill="white"/>
<path d="M331.945 152.007C332.225 152.007 332.452 151.758 332.452 151.452C332.452 151.145 332.225 150.896 331.945 150.896C331.665 150.896 331.438 151.145 331.438 151.452C331.438 151.758 331.665 152.007 331.945 152.007Z" fill="white"/>
<path fill-rule="evenodd" clip-rule="evenodd" d="M528.012 271.709C528.006 269.8 527.31 267.972 526.078 266.622C524.845 265.272 523.175 264.511 521.431 264.504H421.381C419.636 264.504 417.962 265.263 416.728 266.615C415.494 267.966 414.801 269.798 414.801 271.709V398.383C414.801 399.329 414.971 400.265 415.302 401.139C415.633 402.012 416.118 402.805 416.729 403.473C417.34 404.141 418.066 404.671 418.864 405.031C419.662 405.392 420.518 405.577 421.381 405.575H521.431C523.175 405.575 524.847 404.818 526.08 403.469C527.314 402.121 528.009 400.292 528.012 398.383V271.709Z" fill="#47537D"/>
<path fill-rule="evenodd" clip-rule="evenodd" d="M471.477 284.039C476.42 284.097 481.289 285.372 485.721 287.77C490.153 290.169 494.035 293.629 497.079 297.893C500.193 302.314 502.31 307.476 503.258 312.961C504.498 320.13 503.692 327.544 500.949 334.194C498.206 340.844 493.66 346.408 487.928 350.131C482.196 353.853 475.556 355.553 468.911 355C462.266 354.447 455.937 351.668 450.785 347.039C445.633 342.411 441.907 336.158 440.114 329.131C438.321 322.103 438.547 314.641 440.762 307.76C442.977 300.878 447.074 294.91 452.495 290.666C457.917 286.422 464.4 284.108 471.064 284.039H471.477ZM471.276 286.932C463.911 286.961 456.817 289.976 451.362 295.394C445.907 300.812 442.478 308.25 441.736 316.272C440.994 324.295 442.992 332.335 447.345 338.84C451.697 345.345 458.096 349.855 465.306 351.5C472.516 353.145 480.028 351.808 486.391 347.748C492.754 343.687 497.519 337.191 499.765 329.511C502.012 321.832 501.582 313.513 498.557 306.161C495.533 298.808 490.129 292.942 483.387 289.695C479.571 287.859 475.445 286.918 471.276 286.932Z" fill="#BD9956"/>
<path fill-rule="evenodd" clip-rule="evenodd" d="M455.038 316.486C455.627 317.251 456.407 317.812 457.282 318.101C458.157 318.389 459.09 318.394 459.967 318.113L463.788 316.822C466.684 321.906 471.142 325.692 476.359 327.499V331.928C476.357 333.012 476.672 334.068 477.258 334.941C477.844 335.815 478.669 336.46 479.614 336.783C474.244 336.081 469.141 333.833 464.823 330.267C460.506 326.702 457.129 321.946 455.038 316.486Z" fill="#BD9956"/>
<path fill-rule="evenodd" clip-rule="evenodd" d="M460.357 302.27C461.529 301.909 462.785 302.067 463.852 302.709C464.92 303.352 465.714 304.428 466.064 305.705L467.338 310.366C467.516 311.006 467.576 311.678 467.516 312.344C467.455 313.01 467.275 313.656 466.986 314.245C466.696 314.834 466.304 315.355 465.83 315.777C465.356 316.199 464.81 316.515 464.225 316.705L463.788 316.86C461.525 312.886 460.324 308.297 460.321 303.613C460.333 303.161 460.333 302.709 460.357 302.27Z" fill="#BD9956"/>
<path fill-rule="evenodd" clip-rule="evenodd" d="M452.868 307.203C453.178 310.395 453.909 313.522 455.038 316.486C454.644 315.959 454.348 315.354 454.165 314.704L452.892 310.03C452.63 309.111 452.622 308.127 452.868 307.203Z" fill="#BD9956"/>
<path fill-rule="evenodd" clip-rule="evenodd" d="M460.356 302.27C460.356 302.709 460.356 303.161 460.356 303.562C460.359 308.245 461.56 312.834 463.823 316.809L460.003 318.1C459.125 318.381 458.192 318.376 457.317 318.088C456.442 317.799 455.663 317.238 455.073 316.473C453.945 313.509 453.214 310.383 452.903 307.19C453.112 306.361 453.509 305.605 454.058 304.99C454.606 304.376 455.289 303.924 456.04 303.678L460.297 302.27H460.356Z" fill="#BD9956"/>
<path fill-rule="evenodd" clip-rule="evenodd" d="M479.614 336.821C480.82 336.978 482.033 337.055 483.246 337.054H481.018C480.542 337.056 480.068 336.978 479.614 336.821Z" fill="#BD9956"/>
<path fill-rule="evenodd" clip-rule="evenodd" d="M486.866 336.821C486.413 336.979 485.939 337.057 485.463 337.054H483.246C484.456 337.055 485.665 336.977 486.866 336.821Z" fill="#BD9956"/>
<path fill-rule="evenodd" clip-rule="evenodd" d="M485.463 321.999C486.702 321.999 487.891 322.532 488.774 323.484C489.656 324.436 490.162 325.73 490.18 327.086V327.538C485.702 329.087 480.896 329.087 476.418 327.538V327.073C476.437 325.717 476.942 324.423 477.824 323.471C478.707 322.52 479.896 321.986 481.135 321.986L485.463 321.999Z" fill="#BD9956"/>
<path fill-rule="evenodd" clip-rule="evenodd" d="M490.122 327.538V331.967C490.124 333.05 489.809 334.106 489.223 334.98C488.637 335.853 487.812 336.499 486.867 336.821C484.458 337.131 482.023 337.131 479.614 336.821C478.669 336.499 477.844 335.853 477.258 334.98C476.672 334.106 476.357 333.05 476.359 331.967V327.538C480.838 329.087 485.643 329.087 490.122 327.538Z" fill="#BD9956"/>
<path fill-rule="evenodd" clip-rule="evenodd" d="M501.926 366.699C502.161 366.772 502.39 366.867 502.61 366.983C503.097 367.263 503.504 367.684 503.788 368.199C504.072 368.715 504.222 369.305 504.222 369.907C504.222 370.509 504.072 371.1 503.788 371.615C503.504 372.13 503.097 372.551 502.61 372.832C502.179 373.084 501.696 373.213 501.207 373.206H441.653C441.408 373.196 441.163 373.166 440.922 373.116C440.405 372.945 439.938 372.631 439.567 372.202C439.195 371.774 438.932 371.247 438.803 370.673C438.675 370.1 438.685 369.499 438.833 368.931C438.981 368.363 439.262 367.847 439.648 367.435C440.011 367.078 440.449 366.825 440.922 366.699C441.164 366.651 441.408 366.616 441.653 366.595H501.207L501.926 366.699Z" fill="#636F99"/>
<path fill-rule="evenodd" clip-rule="evenodd" d="M495.251 381.728C495.725 381.851 496.164 382.104 496.525 382.464C496.833 382.781 497.078 383.164 497.246 383.589C497.414 384.015 497.5 384.473 497.5 384.936C497.5 385.399 497.414 385.858 497.246 386.283C497.078 386.708 496.833 387.091 496.525 387.409C496.162 387.765 495.724 388.018 495.251 388.145C495.015 388.209 494.768 388.209 494.532 388.248H448.28C448.044 388.248 447.797 388.248 447.561 388.145C447.043 387.976 446.575 387.662 446.202 387.235C445.829 386.807 445.565 386.28 445.435 385.706C445.305 385.133 445.314 384.531 445.462 383.963C445.609 383.394 445.89 382.877 446.275 382.464C446.642 382.107 447.084 381.854 447.561 381.728C447.797 381.663 448.044 381.663 448.28 381.624H494.532L495.251 381.728Z" fill="#636F99"/>
<path d="M347.664 286.493H295.48V298.126H347.664V286.493Z" fill="#47537D"/>
<path d="M372.865 306.97H295.48V318.603H372.865V306.97Z" fill="#E6EBFC"/>
<path d="M372.865 329.229H295.48V340.863H372.865V329.229Z" fill="#E6EBFC"/>
<path d="M70.6154 282.89H0V289.398H70.6154V282.89Z" fill="#EFEFEF"/>
<path d="M47.1123 295.234H0V301.741H47.1123V295.234Z" fill="#EFEFEF"/>
<path fill-rule="evenodd" clip-rule="evenodd" d="M436.57 60.7743C436.571 59.3557 436.318 57.9507 435.823 56.6397C435.328 55.3286 434.602 54.1371 433.686 53.1335C432.771 52.1298 431.683 51.3335 430.487 50.7903C429.29 50.247 428.007 49.9674 426.711 49.9674H296.33C295.033 49.9657 293.749 50.2441 292.55 50.7866C291.352 51.3291 290.263 52.125 289.347 53.1289C288.43 54.1327 287.703 55.3248 287.207 56.6367C286.712 57.9486 286.457 59.3546 286.459 60.7743C286.459 62.1929 286.714 63.5975 287.211 64.908C287.707 66.2184 288.434 67.4089 289.351 68.4114C290.267 69.4139 291.356 70.2087 292.553 70.7504C293.751 71.292 295.034 71.57 296.33 71.5683H426.711C429.326 71.5683 431.833 70.4311 433.682 68.4068C435.531 66.3825 436.57 63.637 436.57 60.7743Z" fill="#F2F5FF"/>
<path d="M302.132 413.193C305.974 413.193 309.089 409.782 309.089 405.575C309.089 401.368 305.974 397.957 302.132 397.957C298.289 397.957 295.174 401.368 295.174 405.575C295.174 409.782 298.289 413.193 302.132 413.193Z" fill="#F2F5FF"/>
<path d="M361.52 413.193C365.363 413.193 368.478 409.782 368.478 405.575C368.478 401.368 365.363 397.957 361.52 397.957C357.678 397.957 354.562 401.368 354.562 405.575C354.562 409.782 357.678 413.193 361.52 413.193Z" fill="#F2F5FF"/>
</g>
<defs>
<linearGradient id="paint0_linear_562_778" x1="88.458" y1="55.9196" x2="131.832" y2="55.9196" gradientUnits="userSpaceOnUse">
<stop stop-color="#1B264D"/>
<stop offset="1" stop-color="#5A6792"/>
</linearGradient>
<linearGradient id="paint1_linear_562_778" x1="309.774" y1="121.174" x2="379.876" y2="213.102" gradientUnits="userSpaceOnUse">
<stop stop-color="#4E4B66"/>
<stop offset="1" stop-color="#293170"/>
</linearGradient>
<clipPath id="clip0_562_778">
<rect width="528" height="475" fill="white"/>
</clipPath>
</defs>
</svg>
